<svg width="466" height="195" viewBox="0 0 466 195" fill="none" xmlns="http://www.w3.org/2000/svg">
<path d="M0 6.37136V105.798C0 106.469 0.586838 107.056 1.25751 107.056H39.5696C40.1565 107.056 40.6595 106.636 40.8271 106.05C44.1805 92.9715 56.0011 83.3307 70.169 83.3307C84.337 83.3307 96.1575 92.9715 99.5109 106.05C99.6786 106.636 100.182 107.056 100.768 107.056H139.081C139.751 107.056 140.338 106.469 140.338 105.798V6.37136C140.338 2.85035 137.488 0 133.967 0H6.37138C2.85035 0 0 2.85035 0 6.37136ZM70.169 73.6898C53.4861 73.6898 39.905 60.1087 39.905 43.4258C39.905 26.7429 53.4861 13.1619 70.169 13.1619C86.852 13.1619 100.433 26.7429 100.433 43.4258C100.433 60.1087 86.852 73.6898 70.169 73.6898Z" fill="#5833E8"/>
<path d="M100.685 120.134C100.098 120.134 99.5947 120.553 99.4271 121.14C96.0737 134.218 84.2531 143.859 70.0852 143.859C56.0011 143.859 44.0967 134.218 40.7433 121.14C40.5756 120.553 40.0726 120.134 39.4858 120.134H1.25751C0.586838 120.134 0 120.721 0 121.391V175.883C0 176.554 0.586838 177.141 1.25751 177.141H39.5696C40.1565 177.141 40.6595 176.722 40.8271 176.135C44.1805 163.057 56.0011 153.416 70.169 153.416C84.2531 153.416 96.1575 163.057 99.5109 176.135C99.6786 176.722 100.182 177.141 100.768 177.141H139.081C139.751 177.141 140.338 176.554 140.338 175.883V121.391C140.338 120.721 139.751 120.134 139.081 120.134H100.685Z" fill="#5833E8"/>
<path d="M196.399 50.2997L213.668 106.217C213.752 106.636 213.501 107.055 213.082 107.055H205.872C205.62 107.055 205.369 106.888 205.285 106.636L201.345 93.6418C201.261 93.3903 201.01 93.2226 200.758 93.2226H178.961C178.71 93.2226 178.458 93.3903 178.374 93.6418L174.434 106.636C174.35 106.888 174.099 107.055 173.847 107.055H166.638C166.219 107.055 165.883 106.636 166.051 106.217L183.321 50.2997C183.404 50.0482 183.656 49.8805 183.907 49.8805H195.728C196.063 49.7967 196.315 50.0482 196.399 50.2997ZM198.914 85.0069L190.447 57.3417C190.363 57.0902 190.111 56.9226 189.86 56.9226H189.776C189.524 56.9226 189.273 57.0902 189.189 57.3417L180.722 85.0069C180.638 85.4261 180.889 85.8452 181.309 85.8452H198.243C198.746 85.7614 199.081 85.3422 198.914 85.0069ZM233.453 65.7251C242.172 65.7251 248.627 69.5815 253.07 74.6115C253.322 74.863 253.238 75.2822 252.986 75.5337L248.627 79.2224C248.376 79.4739 247.956 79.39 247.705 79.1385C243.346 73.857 238.315 72.0127 233.705 72.0127C228.842 72.0127 225.74 73.9408 225.74 77.2104C225.74 80.5637 228.758 81.9889 233.537 82.7434L238.399 83.5817C246.783 85.0069 253.489 87.7734 253.489 95.4861C253.489 103.199 246.364 108.061 237.142 108.061C227.752 108.061 220.124 103.786 215.848 96.4921C215.68 96.1568 215.764 95.8215 216.1 95.6538L221.213 92.7196C221.549 92.5519 221.884 92.6358 222.052 92.9711C225.657 99.7617 231.525 101.774 236.974 101.774C242.507 101.774 246.028 99.4263 246.028 95.9891C246.028 92.5519 242.759 91.1268 237.729 90.2884L232.866 89.4501C223.896 87.8573 218.279 84.5877 218.279 77.5457C218.363 70.336 224.483 65.7251 233.453 65.7251ZM268.579 66.312V53.8207C268.579 53.4854 268.831 53.2339 269.166 53.2339H275.621C275.957 53.2339 276.208 53.4854 276.208 53.8207V66.312C276.208 66.6473 276.46 66.8988 276.795 66.8988H287.945C288.28 66.8988 288.532 67.1503 288.532 67.4856V72.7672C288.532 73.1025 288.28 73.354 287.945 73.354H276.795C276.46 73.354 276.208 73.6055 276.208 73.9408V98.085C276.208 99.6778 277.047 100.516 278.472 100.516H285.681C286.017 100.516 286.268 100.768 286.268 101.103V106.385C286.268 106.72 286.017 106.971 285.681 106.971H275.37C271.346 106.971 268.496 104.289 268.496 100.181V74.1085C268.496 73.7732 268.244 73.5217 267.909 73.5217H257.513C257.178 73.5217 256.927 73.2702 256.927 72.9348V67.6533C256.927 67.318 257.178 67.0665 257.513 67.0665H267.909C268.328 66.8988 268.579 66.6473 268.579 66.312ZM324.748 106.385V100.684C324.748 100.348 324.496 100.097 324.161 100.097H323.993C323.742 100.097 323.574 100.265 323.407 100.432C321.478 104.205 317.538 107.81 309.909 107.81C301.275 107.81 294.149 101.941 294.149 91.1268V67.5695C294.149 67.2341 294.4 66.9826 294.736 66.9826H301.191C301.526 66.9826 301.778 67.2341 301.778 67.5695V90.3723C301.778 97.4981 305.802 101.019 312.424 101.019C319.802 101.019 324.496 96.2406 324.496 87.3542V67.5695C324.496 67.2341 324.748 66.9826 325.083 66.9826H331.538C331.874 66.9826 332.125 67.2341 332.125 67.5695V106.468C332.125 106.804 331.874 107.055 331.538 107.055H325.251C324.999 107.055 324.748 106.72 324.748 106.385ZM349.73 72.348H349.814C350.066 72.348 350.317 72.1803 350.401 71.9288C351.994 68.1563 355.18 66.6473 360.293 66.6473H364.317C364.653 66.6473 364.904 66.8988 364.904 67.2341V72.9348C364.904 73.2702 364.653 73.5217 364.317 73.5217H358.617C353 73.5217 349.227 76.5397 349.227 82.9949V106.385C349.227 106.72 348.976 106.971 348.641 106.971H342.185C341.85 106.971 341.599 106.72 341.599 106.385V67.5695C341.599 67.2341 341.85 66.9826 342.185 66.9826H348.473C348.808 66.9826 349.06 67.2341 349.06 67.5695V71.7612C349.06 72.0965 349.395 72.348 349.73 72.348ZM373.791 48.8745C377.228 48.8745 379.743 51.3057 379.743 54.7429C379.743 58.0962 377.228 60.5274 373.791 60.5274C370.437 60.5274 367.922 58.0962 367.922 54.7429C367.922 51.3057 370.437 48.8745 373.791 48.8745ZM376.976 107.055H370.521C370.186 107.055 369.934 106.804 369.934 106.468V67.5695C369.934 67.2341 370.186 66.9826 370.521 66.9826H376.976C377.312 66.9826 377.563 67.2341 377.563 67.5695V106.468C377.647 106.72 377.395 107.055 376.976 107.055ZM404.725 65.7251C415.456 65.7251 422.246 71.9288 422.246 81.5697V106.385C422.246 106.72 421.995 106.971 421.66 106.971H415.372C415.037 106.971 414.785 106.72 414.785 106.385V101.355C414.785 101.019 414.534 100.768 414.198 100.768H414.031C413.779 100.768 413.612 100.851 413.528 101.103C411.348 104.624 407.659 108.229 399.444 108.229C390.473 108.229 384.437 103.45 384.437 96.1568C384.437 88.6956 389.97 85.0069 397.851 84.3362L414.198 82.6596C414.534 82.6596 414.785 82.3242 414.785 82.0727V81.2344C414.785 76.1205 411.18 72.2642 404.641 72.2642C398.354 72.2642 394.497 75.7852 392.15 80.4799C391.982 80.8152 391.563 80.899 391.312 80.7314L386.03 77.7134C385.695 77.5457 385.611 77.1265 385.779 76.875C388.713 71.5935 394.414 65.7251 404.725 65.7251ZM400.785 101.69C409.001 101.69 414.534 96.8275 414.534 89.2824V88.6956L399.528 90.2884C394.833 90.7914 392.15 92.6358 392.15 95.9891C392.15 99.4263 395.504 101.69 400.785 101.69ZM444.965 65.7251C453.684 65.7251 460.139 69.5815 464.582 74.6115C464.834 74.863 464.75 75.2822 464.499 75.5337L460.139 79.2224C459.888 79.4739 459.469 79.39 459.217 79.1385C454.858 73.857 449.828 72.0127 445.217 72.0127C440.354 72.0127 437.253 73.9408 437.253 77.2104C437.253 80.5637 440.271 81.9889 445.049 82.7434L449.912 83.5817C458.295 85.0069 465.002 87.7734 465.002 95.4861C465.002 103.199 457.876 108.061 448.654 108.061C439.265 108.061 431.636 103.786 427.36 96.4921C427.193 96.1568 427.276 95.8215 427.612 95.6538L432.726 92.7196C433.061 92.5519 433.396 92.6358 433.564 92.9711C437.169 99.7617 443.037 101.774 448.486 101.774C454.019 101.774 457.54 99.4263 457.54 95.9891C457.54 92.5519 454.271 91.1268 449.241 90.2884L444.378 89.4501C435.408 87.8573 429.791 84.5877 429.791 77.5457C429.959 70.336 436.079 65.7251 444.965 65.7251ZM178.71 120.888V144.445C178.71 144.78 178.961 145.032 179.297 145.032H203.189C203.525 145.032 203.776 144.78 203.776 144.445V120.888C203.776 120.552 204.028 120.301 204.363 120.301H211.237C211.573 120.301 211.824 120.552 211.824 120.888V176.889C211.824 177.224 211.573 177.476 211.237 177.476H204.531C204.195 177.476 203.944 177.224 203.944 176.889V153.164C203.944 152.828 203.692 152.577 203.357 152.577H179.38C179.045 152.577 178.794 152.828 178.794 153.164V176.889C178.794 177.224 178.542 177.476 178.207 177.476H171.332C170.997 177.476 170.746 177.224 170.746 176.889V120.972C170.746 120.636 170.997 120.385 171.332 120.385H178.207C178.458 120.301 178.71 120.552 178.71 120.888ZM240.16 136.229C250.891 136.229 257.681 142.433 257.681 152.074V176.889C257.681 177.224 257.43 177.476 257.094 177.476H250.807C250.471 177.476 250.22 177.224 250.22 176.889V171.859C250.22 171.523 249.968 171.272 249.633 171.272H249.465C249.214 171.272 249.046 171.356 248.962 171.607C246.783 175.128 243.094 178.733 234.878 178.733C225.908 178.733 219.872 173.955 219.872 166.661C219.872 159.2 225.405 155.511 233.285 154.84L249.633 153.164C249.968 153.164 250.22 152.828 250.22 152.577V151.739C250.22 146.625 246.615 142.768 240.076 142.768C233.788 142.768 229.932 146.289 227.585 150.984C227.417 151.319 226.998 151.403 226.746 151.236L221.465 148.218C221.13 148.05 221.046 147.631 221.213 147.379C224.148 142.098 229.848 136.229 240.16 136.229ZM236.22 172.194C244.352 172.194 249.968 167.332 249.968 159.787V159.2L234.962 160.793C230.267 161.296 227.585 163.14 227.585 166.493C227.585 169.931 230.938 172.194 236.22 172.194ZM285.849 136.229C296.328 136.229 303.287 142.433 305.215 150.9C305.299 151.236 305.047 151.571 304.712 151.655L298.424 153.248C298.089 153.331 297.754 153.08 297.67 152.745C296.664 147.212 292.472 143.104 285.849 143.104C278.304 143.104 272.687 148.972 272.687 157.523C272.687 165.907 278.136 171.859 285.849 171.859C292.807 171.859 296.412 167.919 297.754 162.218C297.837 161.883 298.173 161.631 298.508 161.715L304.796 163.308C305.131 163.392 305.299 163.727 305.299 164.062C303.37 172.613 296.412 178.733 285.849 178.733C274.28 178.733 264.975 170.014 264.975 157.607C264.975 144.948 274.196 136.229 285.849 136.229ZM334.389 153.415L351.156 176.47C351.491 176.889 351.156 177.476 350.653 177.476H343.191C343.024 177.476 342.772 177.392 342.688 177.224L328.94 158.194C328.688 157.859 328.269 157.859 328.017 158.11L320.892 164.146C320.724 164.23 320.64 164.481 320.64 164.649V176.889C320.64 177.224 320.389 177.476 320.053 177.476H313.598C313.263 177.476 313.011 177.224 313.011 176.889V120.972C313.011 120.636 313.263 120.385 313.598 120.385H320.053C320.389 120.385 320.64 120.636 320.64 120.972V153.834C320.64 154.17 320.892 154.421 321.227 154.421H321.311C321.478 154.421 321.646 154.337 321.73 154.254L341.096 137.571C341.179 137.487 341.347 137.403 341.515 137.403H350.569C351.156 137.403 351.407 138.158 350.988 138.493L334.473 152.577C334.221 152.828 334.221 153.164 334.389 153.415ZM361.97 119.295C365.407 119.295 367.922 121.726 367.922 125.163C367.922 128.517 365.407 130.948 361.97 130.948C358.617 130.948 356.102 128.517 356.102 125.163C356.102 121.726 358.617 119.295 361.97 119.295ZM365.156 177.476H358.784C358.449 177.476 358.114 177.224 358.114 176.805V137.99C358.114 137.655 358.365 137.319 358.784 137.319H365.156C365.491 137.319 365.826 137.571 365.826 137.99V176.889C365.826 177.224 365.491 177.476 365.156 177.476ZM383.431 137.99V143.691C383.431 144.026 383.683 144.277 384.018 144.277H384.186C384.437 144.277 384.605 144.11 384.773 143.942C386.701 140.17 390.641 136.565 398.27 136.565C406.905 136.565 414.031 142.433 414.031 153.248V176.889C414.031 177.224 413.779 177.476 413.444 177.476H406.989C406.653 177.476 406.402 177.224 406.402 176.889V154.086C406.402 146.96 402.378 143.439 395.755 143.439C388.378 143.439 383.683 148.218 383.683 157.104V176.889C383.683 177.224 383.431 177.476 383.096 177.476H376.641C376.306 177.476 376.054 177.224 376.054 176.889V137.99C376.054 137.655 376.306 137.403 376.641 137.403H382.928C383.096 137.403 383.431 137.655 383.431 137.99ZM462.235 137.403C462.57 137.403 462.822 137.655 462.822 137.99V175.883C462.822 187.033 455.109 194.997 442.702 194.997C432.306 194.997 426.187 190.302 422.33 184.266C422.163 183.931 422.246 183.596 422.498 183.428L428.031 180.158C428.366 179.991 428.702 180.074 428.869 180.41C431.217 184.685 435.66 188.374 442.283 188.374C449.744 188.374 455.109 184.182 455.109 175.547V170.685C455.109 170.35 454.858 170.098 454.522 170.098C454.271 170.098 454.103 170.182 454.019 170.434C451.756 174.206 447.9 177.727 440.103 177.727C429.624 177.727 421.24 169.344 421.24 157.02C421.24 144.78 429.624 136.313 440.103 136.313C447.816 136.313 451.756 139.918 454.019 143.691C454.103 143.858 454.355 144.026 454.522 144.026H454.69C455.025 144.026 455.277 143.774 455.277 143.439V138.158C455.277 137.822 455.528 137.571 455.864 137.571H462.235V137.403ZM455.193 156.936C455.193 148.385 449.66 143.104 442.031 143.104C434.486 143.104 429.037 148.134 429.037 156.936C429.037 165.655 434.486 170.769 442.031 170.769C449.66 170.685 455.193 165.487 455.193 156.936Z" fill="#5833E8"/>
</svg>
